<svg t="1572342656518" class="icon" viewBox="0 0 1024 1024" version="1.1" xmlns="http://www.w3.org/2000/svg" p-id="3182" width="48" height="48"><path d="M916 956l-320 0c-22.4 0-40-17.6-40-40l0-320c0-22.4 17.6-40 40-40l320 0c22.4 0 40 17.6 40 40l0 320C956 938.4 938.4 956 916 956zM763.2 498.4c-12.8 12.8-33.6 12.8-45.6 0L533.6 315.2c-12.8-12.8-12.8-33.6 0-45.6l183.2-183.2c12.8-12.8 33.6-12.8 45.6 0l183.2 183.2c12.8 12.8 12.8 33.6 0 45.6L763.2 498.4zM436 956l-320 0c-22.4 0-40-17.6-40-40l0-320c0-22.4 17.6-40 40-40l320 0c22.4 0 40 17.6 40 40l0 320C476 938.4 458.4 956 436 956zM436 476l-320 0c-22.4 0-40-17.6-40-40l0-320c0-22.4 17.6-40 40-40l320 0c22.4 0 40 17.6 40 40l0 320C476 458.4 458.4 476 436 476z" p-id="3183"></path></svg>