<svg t="1574304569209" class="icon" viewBox="0 0 1024 1024" version="1.1" xmlns="http://www.w3.org/2000/svg" p-id="3369" width="200" height="200"><path d="M788.5 96H236.7c-24.3 0-44 19.7-44 44v743.6c0 24.3 19.7 44 44 44h551.8c24.3 0 44-19.7 44-44V140c0-24.3-19.7-44-44-44z m-20 767.6H256.7V160h511.8v703.6z" p-id="3370"></path><path d="M385.5 347.8h193.1c17.6 0 32.1-14.4 32.1-32.1 0-17.6-14.4-32.1-32.1-32.1H385.5c-17.6 0-32.1 14.4-32.1 32.1 0 17.7 14.4 32.1 32.1 32.1zM385.5 732h193.1c17.6 0 32.1-14.4 32.1-32.1 0-17.6-14.4-32.1-32.1-32.1H385.5c-17.6 0-32.1 14.4-32.1 32.1 0 17.6 14.4 32.1 32.1 32.1zM354.7 507.9c0 17.6 14.4 32.1 32.1 32.1h250.5c17.6 0 32.1-14.4 32.1-32.1 0-17.6-14.4-32.1-32.1-32.1H386.8c-17.7 0-32.1 14.4-32.1 32.1z" p-id="3371"></path></svg>